<svg xmlns="http://www.w3.org/2000/svg" xmlns:xlink="http://www.w3.org/1999/xlink" width="500" zoomAndPan="magnify" viewBox="0 0 375 374.999991" height="500" preserveAspectRatio="xMidYMid meet" version="1.2"><defs><clipPath id="fb857a1b6e"><path d="M 5.023438 10.171875 L 357 10.171875 L 357 350.121094 L 5.023438 350.121094 Z M 5.023438 10.171875 "/></clipPath><clipPath id="c3c766d0e3"><path d="M 61.273438 10.171875 L 300.980469 10.171875 C 315.898438 10.171875 330.207031 16.097656 340.753906 26.648438 C 351.304688 37.195312 357.230469 51.503906 357.230469 66.421875 L 357.230469 293.871094 C 357.230469 324.9375 332.046875 350.121094 300.980469 350.121094 L 61.273438 350.121094 C 46.355469 350.121094 32.046875 344.195312 21.5 333.648438 C 10.949219 323.097656 5.023438 308.789062 5.023438 293.871094 L 5.023438 66.421875 C 5.023438 35.355469 30.207031 10.171875 61.273438 10.171875 Z M 61.273438 10.171875 "/></clipPath><clipPath id="88dc09f7c0"><path d="M 0 3.34375 L 375 3.34375 L 375 371.59375 L 0 371.59375 Z M 0 3.34375 "/></clipPath></defs><g id="cd1b9a396c"><g clip-rule="nonzero" clip-path="url(#fb857a1b6e)"><g clip-rule="nonzero" clip-path="url(#c3c766d0e3)"><path style=" stroke:none;fill-rule:nonzero;fill:#000000;fill-opacity:1;" d="M 5.023438 10.171875 L 356.925781 10.171875 L 356.925781 350.121094 L 5.023438 350.121094 Z M 5.023438 10.171875 "/></g></g><g clip-rule="nonzero" clip-path="url(#88dc09f7c0)"><path style=" stroke:none;fill-rule:evenodd;fill:#ffffff;fill-opacity:1;" d="M 37.058594 6.59375 C 21.066406 11.726562 7.253906 26.335938 3.121094 42.5 C -0.0234375 54.78125 0.0078125 306.367188 3.15625 318.441406 C 7.714844 335.945312 20.183594 349.109375 39.589844 356.898438 C 44.65625 358.933594 59.007812 359.226562 185.175781 359.894531 L 325.136719 360.632812 L 337.367188 364.222656 C 344.09375 366.195312 351.871094 368.769531 354.648438 369.941406 C 362.023438 373.058594 367.484375 372.660156 371.421875 368.71875 L 374.78125 365.363281 L 374.417969 204.636719 L 374.058594 43.910156 L 370.285156 35.851562 C 365.167969 24.933594 358.847656 17.613281 349.878906 12.226562 C 335.375 3.519531 341.90625 3.851562 186.535156 3.917969 C 50.859375 3.976562 44.886719 4.082031 37.058594 6.59375 M 49.539062 37.046875 C 42.765625 39.460938 39.277344 42.6875 36.21875 49.347656 C 33.851562 54.496094 33.722656 61.402344 33.722656 181.15625 C 33.722656 300.910156 33.851562 307.816406 36.21875 312.96875 C 39.1875 319.433594 42.214844 322.328125 48.953125 325.144531 C 53.335938 326.976562 70.199219 327.242188 184.792969 327.28125 C 292.820312 327.320312 317.523438 327.671875 326.496094 329.292969 C 332.476562 330.375 338.4375 331.269531 339.746094 331.285156 C 341.996094 331.308594 342.125 323.8125 342.125 192.664062 C 342.125 78.636719 341.796875 53.226562 340.269531 49.578125 C 337.90625 43.921875 331.234375 38.296875 324.757812 36.496094 C 321.433594 35.574219 274.339844 35.113281 187.214844 35.144531 C 79.003906 35.1875 53.773438 35.535156 49.539062 37.046875 M 75.910156 79.75 C 74.109375 80.253906 71.359375 82.371094 69.800781 84.457031 L 66.96875 88.25 L 75.535156 139.25 C 88.953125 219.164062 98.550781 268.648438 101.984375 275.597656 C 103.644531 278.957031 107.078125 283.085938 109.617188 284.769531 C 113.917969 287.617188 115.714844 287.828125 135.625 287.828125 C 154.003906 287.828125 157.417969 287.492188 159.871094 285.449219 C 161.875 283.777344 165.285156 274.59375 171.339844 254.535156 C 185.171875 208.75 194.628906 179.175781 195.449219 179.144531 C 196.457031 179.109375 197.746094 184.414062 208.878906 234.496094 C 214.070312 257.855469 219.214844 278.242188 220.308594 279.804688 C 224.304688 285.515625 228.15625 287 240.488281 287.589844 C 254.5625 288.261719 259.316406 286.738281 262.222656 280.617188 C 266.28125 272.070312 285.195312 205.695312 304.808594 131.195312 C 316.617188 86.332031 316.6875 85.226562 308.136719 80.941406 C 302.269531 78 285.613281 77.722656 279.070312 80.457031 C 273.386719 82.832031 273.511719 82.472656 257.667969 141.75 C 250.878906 167.160156 245.144531 188.148438 244.929688 188.390625 C 244.148438 189.269531 239.722656 172.214844 230.539062 132.917969 C 225.390625 110.871094 220.253906 90.808594 219.128906 88.339844 C 216.140625 81.785156 209.761719 79.554688 195.671875 80.132812 C 182.820312 80.660156 181.917969 81.285156 178.527344 92.015625 C 177.441406 95.453125 171.570312 116.609375 165.476562 139.03125 C 153.253906 184.042969 153.128906 184.453125 152.445312 182.515625 C 152.179688 181.769531 148.242188 160.382812 143.695312 134.988281 C 139.148438 109.59375 134.699219 87.292969 133.804688 85.429688 C 130.90625 79.386719 127.1875 78.59375 102.285156 78.71875 C 89.578125 78.78125 77.710938 79.246094 75.910156 79.75 "/></g></g></svg>